The European equivalent of "The Return of the Secaucus 7," this Swiss film looks at the lives of several men and women in their 30s as they confront the slim gains of the "revolutionary" sixties. Max, a dissatisfied copy editor; Myriam, a redhead into tantric sex; and Marie, a supermarket checker who gives unauthorized discounts to the elderly, search for renewed meaning on a communal farm. The title character, a six-year-old child, is the carrier of their hopes for the future. 

Screenshots:
 
http://img688.imageshack.us/img688/7310/bscap0018my.jpg 
http://img692.imageshack.us/img692/1002/bscap0019kd.jpg 
http://img703.imageshack.us/img703/3218/bscap0021t.jpg 
http://img585.imageshack.us/img585/3293/bscap0015k.jpg

www.imdb.com/title/tt0074718/


      Format : AVI
      Format/Info : Audio Video Interleave
      File size : 1.38 GiB
      Duration : 1h 50mn
      Overall bit rate : 1 792 Kbps
      Writing application : FairUse Wizard - http://fairusewizard.com
      Writing library : The best and REALLY easy backup tool
   Video #0
      ID : 0
      Format : MPEG-4 Visual
      Format profile : AdvancedSimple@L5
      Format settings, BVOP : Yes
      Format settings, QPel : No
      Format settings, GMC : No warppoints
      Format settings, Matrix : Default (MPEG)
      Muxing mode : Packed bitstream
      Codec ID : XVID
      Codec ID/Hint : XviD
      Duration : 1h 50mn
      Bit rate : 1 590 Kbps
      Width : 688 pixels
      Height : 432 pixels
      Display aspect ratio : 1.593
      Frame rate : 25.000 fps
      Resolution : 24 bits
      Colorimetry : 4:2:0
      Scan type : Progressive
      Bits/(Pixel*Frame) : 0.214
      Stream size : 1.23 GiB (89%)
      Writing library : XviD 1.2.0.dev47 (UTC 2006-11-01)
   Audio #1
      ID : 1
      Format : MPEG Audio
      Format version : Version 1
      Format profile : Layer 3
      Codec ID : 55
      Codec ID/Hint : MP3
      Duration : 1h 50mn
      Bit rate mode : Constant
      Bit rate : 192 Kbps
      Channel(s) : 2 channels
      Sampling rate : 48.0 KHz
      Resolution : 16 bits
      Stream size : 152 MiB (11%)
      Alignment : Aligned on interleaves
      Interleave, duration : 40 ms (1.00 video frame)
      Interleave, preload duration : 504 ms